<svg xmlns="http://www.w3.org/2000/svg" version="1.1" xmlns:xlink="http://www.w3.org/1999/xlink" xmlns:svgjs="http://svgjs.dev/svgjs" width="1500" height="948" viewBox="0 0 1500 948"><g transform="matrix(1,0,0,1,-0.23116284013610766,-1.528326372754691)"><svg viewBox="0 0 392 248" data-background-color="#ffffff" preserveAspectRatio="xMidYMid meet" height="948" width="1500" xmlns="http://www.w3.org/2000/svg" xmlns:xlink="http://www.w3.org/1999/xlink"><g id="tight-bounds" transform="matrix(1,0,0,1,0.060410555555563406,0.40002634420793015)"><svg viewBox="0 0 391.8791788888889 247.2" height="247.2" width="391.8791788888889"><g><svg viewBox="0 0 391.8791788888889 247.2" height="247.2" width="391.8791788888889"><g><svg viewBox="0 0 391.8791788888889 247.2" height="247.2" width="391.8791788888889"><g id="textblocktransform"><svg viewBox="0 0 391.8791788888889 247.2" height="247.2" width="391.8791788888889" id="textblock"><g><svg viewBox="0 0 391.8791788888889 247.2" height="247.2" width="391.8791788888889"><path d="M390.962 53.02C389.119 27.36 383.869 20.227 383.869 20.227 367.749-6.202 347.631-0.506 329.558 3.292 297.649 3.446 265.869 9.091 234.034 12.119 167.213 12.581 99.822 4.986 33.333 23.717 27.087 29.464-6.479 24.846 1.111 56.304 3.101 69.39 10.359 83.913 10.138 95.922 11.133 98.026 12.515 93.202 13.104 96.23 15.168 104.39 18.539 100.541 21.303 105.365 17.452 118.246 20.216 128.971 22.85 140.21 18.208 143.135 12.257 141.749 9.586 151.449 9.309 158.479 7.817 157.145 6.177 156.837 4.98 156.632 2.566 157.402 2.972 159.608 4.353 167.152-1.579 171.514 2.143 178.904-0.418 186.91 3.911 193.838 3.322 202.511 3.248 204.255 3.653 205.744 4.298 206.154 7.154 208.361 2.99 212.672 3.432 217.342 32.725 249.262 64.505 227.195 94.516 241.872 102.309 231.608 96.45 245.516 99.564 243.36 101.996 240.846 103.764 251.263 106.509 245.362 106.933 243.668 106.288 239.665 107.799 240.435 108.591 240.846 109.291 240.743 109.402 238.382 109.568 234.841 108.112 237.048 107.725 235.201 111.907 225.861 110.876 248.081 114.8 247.158 114.615 244.438 113.473 240.538 115.813 241.051 118.134 237.151 118.208 233.918 120.271 242.693 120.345 244.592 120.714 245.926 121.303 246.85 127.751 237.305 134.162 250.237 140.924 245.926 145.069 241.205 149.048 248.492 153.249 246.696 154.723 245.259 156.215 242.693 157.633 247.004 175.006 247.928 193.522 244.079 209.992 247.158 254.005 241.41 301.039 249.518 347.446 241.923 358.39 238.998 369.757 234.841 380.424 231.506 380.424 231.506 389.064 222.371 389.064 181.316S390.906 145.393 391.183 112.703C391.459 80.013 392.749 78.679 390.906 53.02Z" opacity="1" fill="#eaa79c" data-fill-palette-color="tertiary"></path><g transform="matrix(1,0,0,1,55.768319999999974,26.230666666666668)"><svg width="280.3425388888889" viewBox="0 -42.7 69.1 48" height="194.73866666666666" data-palette-color="#ffffff"><path d="M12 4.7L12 4.7Q13.45 4.7 15.08 1.48 16.7-1.75 17.9-6.4L17.9-6.4Q11.75 2.1 11.75 4.25L11.75 4.25Q11.75 4.6 12 4.7ZM17.5-17.25L17.5-17.25Q17.5-12.15 18.5-8.85L18.5-8.85Q19.65-14 19.65-17.23 19.65-20.45 18.5-20.45L18.5-20.45Q17.5-20.45 17.5-17.25ZM3.05-0.55L3.05-0.55 3.75-0.95Q3.9-0.95 3.9-0.8L3.9-0.8Q3.9-0.4 2.65 0.5 1.4 1.4 0.7 1.4 0 1.4 0 0.7L0 0.7Q0-1.95 7.28-11.75 14.55-21.55 19.55-26.95L19.55-26.95 19.65-27.15Q19.65-27.25 19.5-27.25L19.5-27.25Q17.55-25.95 11.35-23.23 5.15-20.5 2.45-20.5L2.45-20.5Q0.95-20.5 0.95-21.5L0.95-21.5Q0.95-21.8 1.38-22.33 1.8-22.85 1.98-22.85 2.15-22.85 2.5-22.53 2.85-22.2 4.67-22.2 6.5-22.2 10.85-23.83 15.2-25.45 19.9-28.15L19.9-28.15Q21.5-29.1 22.55-30.05 23.6-31 24.98-32.45 26.35-33.9 26.78-34.33 27.2-34.75 28.38-36.02 29.55-37.3 30.25-38L30.25-38Q32.2-39.85 33.45-39.85L33.45-39.85Q33.85-39.85 33.85-39.5L33.85-39.5Q33.85-37.5 27.4-32.8L27.4-32.8Q24.95-30.95 24.55-30.5L24.55-30.5Q18.9-24.3 10.95-13.78 3-3.25 2.95-0.7L2.95-0.7Q2.95-0.55 3.05-0.55ZM28.55-7.5L28.55-7.5 24.95-5.3Q23.05-4.1 21.58-4.1 20.1-4.1 18.95-5.15L18.95-5.15Q17.55-0.7 15.58 2.3 13.6 5.3 11.7 5.3L11.7 5.3Q11.05 5.3 11.05 4.7L11.05 4.7Q11.05 1.55 17.55-7.45L17.55-7.45Q16.25-10.6 16.25-16.35L16.25-16.35Q16.25-18.3 16.85-19.6 17.45-20.9 18.5-20.9L18.5-20.9Q20.9-20.9 20.9-15.9L20.9-15.9Q20.9-13.8 20.45-11.4L20.45-11.4Q27.4-20.45 36.3-30.25 45.2-40.05 48.2-42.25L48.2-42.25Q48.9-42.7 49.9-42.7L49.9-42.7Q50.9-42.7 50.9-42.35L50.9-42.35Q50.9-42.1 50.7-41.9L50.7-41.9Q50.45-41.65 49.9-41.15 49.35-40.65 48.95-40.25L48.95-40.25Q31.45-22.75 20.65-9.9L20.65-9.9 20.05-9.15Q20-9 19.8-8.08 19.6-7.15 19.45-6.7L19.45-6.7Q20.5-4.9 22.15-4.9L22.15-4.9Q23.1-4.9 24-5.4L24-5.4Q25.5-6.25 27.55-7.6L27.55-7.6Q27.9-7.8 28.3-7.8 28.7-7.8 28.7-7.7 28.7-7.6 28.55-7.5ZM44.75-19.6L44.75-19.6 44.55-14.25Q45.05-13.6 46.15-13.6L46.15-13.6Q48.75-13.6 53.92-17.57 59.1-21.55 63.27-26.58 67.45-31.6 67.45-34.25L67.45-34.25Q67.45-36.3 64.7-36.3L64.7-36.3Q60.8-36.3 55.25-33.4 49.7-30.5 44.25-25.98 38.8-21.45 34.02-16.38 29.25-11.3 26.27-6.43 23.3-1.55 23.3 1.5L23.3 1.5Q23.3 1.9 23.65 1.9L23.65 1.9Q25.1 1.9 30-3.93 34.9-9.75 39.42-16.28 43.95-22.8 44.8-25L44.8-25Q44.95-25.35 45.1-25.35L45.1-25.35Q45.65-25.35 45.65-23.98 45.65-22.6 45.4-22.25L45.4-22.25Q44.85-20.75 43.2-18.2L43.2-18.2Q39.35-12.15 32.27-4.8 25.2 2.55 23.5 2.55L23.5 2.55Q22.7 2.55 22.7 1.5L22.7 1.5Q22.7-2.4 27.4-9.03 32.1-15.65 38.62-21.78 45.15-27.9 52.57-32.4 60-36.9 64.9-36.9L64.9-36.9Q69.1-36.9 69.1-33.9L69.1-33.9Q69.1-31.55 66.5-27.88 63.9-24.2 60.25-20.85 56.6-17.5 52.3-15.1 48-12.7 44.9-12.7L44.9-12.7Q44.65-12.7 44.5-12.75L44.5-12.75Q45 2.05 49.35 2.05L49.35 2.05Q50.85 2.05 53.17 1.13 55.5 0.2 57.1-0.75L57.1-0.75 58.7-1.7Q59.1-1.95 59.3-1.95 59.5-1.95 59.5-1.78 59.5-1.6 59.15-1.3L59.15-1.3Q58.45-0.85 57.35-0.15 56.25 0.55 53.5 1.73 50.75 2.9 48.97 2.9 47.2 2.9 46 1.78 44.8 0.65 44.2-1.3L44.2-1.3Q43.05-4.8 43.05-9.58 43.05-14.35 43.62-17.1 44.2-19.85 44.65-19.85L44.65-19.85Q44.75-19.85 44.75-19.6Z" opacity="1" transform="matrix(1,0,0,1,0,0)" fill="#ffffff" class="wordmark-text-0" data-fill-palette-color="quaternary" id="text-0"></path></svg></g></svg></g></svg></g></svg></g><g></g></svg></g><defs></defs></svg><rect width="391.8791788888889" height="247.2" fill="none" stroke="none" visibility="hidden"></rect></g></svg></g></svg>