<svg xmlns="http://www.w3.org/2000/svg" version="1.1" xmlns:xlink="http://www.w3.org/1999/xlink" xmlns:svgjs="http://svgjs.dev/svgjs" width="1500" height="587" viewBox="0 0 1500 587"><g transform="matrix(1,0,0,1,-0.9084522071641459,-0.6529552202161995)"><svg viewBox="0 0 396 155" data-background-color="#ffffff" preserveAspectRatio="xMidYMid meet" height="587" width="1500" xmlns="http://www.w3.org/2000/svg" xmlns:xlink="http://www.w3.org/1999/xlink"><g id="tight-bounds" transform="matrix(1,0,0,1,0.24008861730862918,0.17241577365163607)"><svg viewBox="0 0 395.52 154.65516845269673" height="154.65516845269673" width="395.52"><g><svg viewBox="0 0 395.52 154.65516845269673" height="154.65516845269673" width="395.52"><g><svg viewBox="0 0 395.52 154.65516845269673" height="154.65516845269673" width="395.52"><g id="textblocktransform"><svg viewBox="0 0 395.52 154.65516845269673" height="154.65516845269673" width="395.52" id="textblock"><g><svg viewBox="0 0 395.52 154.65516845269673" height="154.65516845269673" width="395.52"><path d="M394.594 33.171C392.735 17.117 387.435 12.655 387.435 12.655 371.165-3.88 350.86-0.316 332.619 2.06 300.414 2.156 268.339 5.688 236.208 7.582 168.767 7.871 100.749 3.119 33.643 14.838 27.339 18.434-6.54 15.544 1.121 35.225 3.129 43.412 10.456 52.499 10.232 60.011 11.236 61.328 12.631 58.31 13.226 60.204 15.309 65.309 18.711 62.901 21.501 65.919 17.614 73.978 20.403 80.688 23.062 87.719 18.377 89.549 12.371 88.682 9.675 94.75 9.396 99.149 7.89 98.314 6.235 98.122 5.026 97.993 2.59 98.475 2.999 99.855 4.394 104.575-1.594 107.304 2.162 111.927-0.422 116.936 3.948 121.27 3.353 126.696 3.278 127.788 3.687 128.719 4.338 128.976 7.22 130.356 3.018 133.053 3.464 135.975 33.029 155.945 65.104 142.139 95.394 151.322 103.259 144.901 97.346 153.601 100.489 152.253 102.943 150.68 104.728 157.197 107.499 153.505 107.927 152.445 107.276 149.941 108.8 150.423 109.6 150.68 110.307 150.615 110.418 149.139 110.586 146.923 109.117 148.304 108.726 147.148 112.947 141.305 111.906 155.207 115.866 154.629 115.68 152.927 114.528 150.487 116.889 150.808 119.232 148.368 119.306 146.345 121.389 151.835 121.463 153.023 121.835 153.858 122.43 154.436 128.938 148.464 135.409 156.555 142.233 153.858 146.417 150.904 150.433 155.463 154.672 154.34 156.16 153.441 157.666 151.835 159.098 154.532 176.632 155.11 195.319 152.702 211.943 154.629 256.364 151.033 303.836 156.106 350.674 151.354 361.719 149.524 373.192 146.923 383.958 144.836 383.958 144.836 392.679 139.121 392.679 113.436S394.538 90.962 394.817 70.51C395.096 50.058 396.398 49.224 394.538 33.171Z" opacity="1" fill="#eaa79c" data-fill-palette-color="tertiary"></path><g transform="matrix(1,0,0,1,55.76832,26.230666666666668)"><svg width="283.98335999999995" viewBox="0 -42.7 169.88 61.050000000000004" height="102.19383511936338" data-palette-color="#ffffff"><path d="M12 4.7L12 4.7Q13.45 4.7 15.08 1.48 16.7-1.75 17.9-6.4L17.9-6.4Q11.75 2.1 11.75 4.25L11.75 4.25Q11.75 4.6 12 4.7ZM17.5-17.25L17.5-17.25Q17.5-12.15 18.5-8.85L18.5-8.85Q19.65-14 19.65-17.23 19.65-20.45 18.5-20.45L18.5-20.45Q17.5-20.45 17.5-17.25ZM3.05-0.55L3.05-0.55 3.75-0.95Q3.9-0.95 3.9-0.8L3.9-0.8Q3.9-0.4 2.65 0.5 1.4 1.4 0.7 1.4 0 1.4 0 0.7L0 0.7Q0-1.95 7.28-11.75 14.55-21.55 19.55-26.95L19.55-26.95 19.65-27.15Q19.65-27.25 19.5-27.25L19.5-27.25Q17.55-25.95 11.35-23.23 5.15-20.5 2.45-20.5L2.45-20.5Q0.95-20.5 0.95-21.5L0.95-21.5Q0.95-21.8 1.38-22.33 1.8-22.85 1.98-22.85 2.15-22.85 2.5-22.53 2.85-22.2 4.67-22.2 6.5-22.2 10.85-23.83 15.2-25.45 19.9-28.15L19.9-28.15Q21.5-29.1 22.55-30.05 23.6-31 24.98-32.45 26.35-33.9 26.78-34.33 27.2-34.75 28.38-36.02 29.55-37.3 30.25-38L30.25-38Q32.2-39.85 33.45-39.85L33.45-39.85Q33.85-39.85 33.85-39.5L33.85-39.5Q33.85-37.5 27.4-32.8L27.4-32.8Q24.95-30.95 24.55-30.5L24.55-30.5Q18.9-24.3 10.95-13.78 3-3.25 2.95-0.7L2.95-0.7Q2.95-0.55 3.05-0.55ZM28.55-7.5L28.55-7.5 24.95-5.3Q23.05-4.1 21.58-4.1 20.1-4.1 18.95-5.15L18.95-5.15Q17.55-0.7 15.58 2.3 13.6 5.3 11.7 5.3L11.7 5.3Q11.05 5.3 11.05 4.7L11.05 4.7Q11.05 1.55 17.55-7.45L17.55-7.45Q16.25-10.6 16.25-16.35L16.25-16.35Q16.25-18.3 16.85-19.6 17.45-20.9 18.5-20.9L18.5-20.9Q20.9-20.9 20.9-15.9L20.9-15.9Q20.9-13.8 20.45-11.4L20.45-11.4Q27.4-20.45 36.3-30.25 45.2-40.05 48.2-42.25L48.2-42.25Q48.9-42.7 49.9-42.7L49.9-42.7Q50.9-42.7 50.9-42.35L50.9-42.35Q50.9-42.1 50.7-41.9L50.7-41.9Q50.45-41.65 49.9-41.15 49.35-40.65 48.95-40.25L48.95-40.25Q31.45-22.75 20.65-9.9L20.65-9.9 20.05-9.15Q20-9 19.8-8.08 19.6-7.15 19.45-6.7L19.45-6.7Q20.5-4.9 22.15-4.9L22.15-4.9Q23.1-4.9 24-5.4L24-5.4Q25.5-6.25 27.55-7.6L27.55-7.6Q27.9-7.8 28.3-7.8 28.7-7.8 28.7-7.7 28.7-7.6 28.55-7.5ZM39.2-4.6L41.25-5.95 41.3-5.3Q33.25 0.05 31.5 0.05L31.5 0.05Q31.2 0.05 31.2-0.3L31.2-0.3Q31.2-1.35 32-3.3L32-3.3 32.25-4Q32.25-4.1 32.07-4.1 31.9-4.1 29.15-2.1L29.15-2.1Q26.45-0.1 25.62-0.1 24.8-0.1 24.8-1.6L24.8-1.6Q24.8-5.75 29.52-9.7 34.25-13.65 40.9-13.65L40.9-13.65Q41.5-13.65 41.5-13.15 41.5-12.65 36.8-7.33 32.1-2 32.1-0.9L32.1-0.9Q32.1-0.7 32.4-0.7 32.7-0.7 34.95-2 37.2-3.3 39.2-4.6L39.2-4.6ZM33.3-5.9L33.3-5.9Q34.15-6.55 36.6-9.35 39.05-12.15 39.05-12.6L39.05-12.6Q39.05-12.8 38.65-12.8L38.65-12.8Q36.35-12.8 33.3-10.68 30.25-8.55 28.12-5.85 26-3.15 26-1.5L26-1.5Q26-1.2 26.3-1.2 26.6-1.2 27.27-1.58 27.95-1.95 28.92-2.63 29.9-3.3 30.6-3.8L30.6-3.8Q33-5.6 33.3-5.9ZM44.05-6.95L40.7-4.9 40.55-5.5 42.2-6.55Q45.95-9.05 46.89-10.08 47.84-11.1 48.05-11.35L48.05-11.35Q49.34-13 49.49-13.2L49.49-13.2Q50.09-13 50.09-12L50.09-12Q49.09-10.55 47.39-8.53 45.7-6.5 44.59-5.18 43.49-3.85 43.49-3.65 43.49-3.45 43.57-3.45 43.64-3.45 44.32-3.98 44.99-4.5 47.99-6.6L47.99-6.6Q54.05-10.8 55.7-11.93 57.34-13.05 57.82-13.05 58.3-13.05 58.3-12.08 58.3-11.1 56.8-9.15 55.3-7.2 53.49-5.55L53.49-5.55Q48.7-1.15 48.7-0.7L48.7-0.7Q48.7-0.65 48.89-0.65L48.89-0.65Q49.49-0.65 55.64-4.6L55.64-4.6 57.7-5.95 57.75-5.3Q49.7 0.05 47.95 0.05L47.95 0.05Q47.64 0.05 47.64-0.25L47.64-0.25Q47.64-2.1 49.97-4.63 52.3-7.15 54.59-9.18 56.89-11.2 56.89-11.85L56.89-11.85Q56.89-11.95 56.8-11.95L56.8-11.95Q55.34-11.25 50.07-7.53 44.8-3.8 43.89-3.15L43.89-3.15Q41.55-1.4 41.42-1.33 41.3-1.25 40.89-0.8L40.89-0.8Q39.99 0.15 39.24 0.15L39.24 0.15Q38.05 0.05 37.99 0L37.99 0Q37.95-0.05 37.95-0.1L37.95-0.1Q37.95-0.15 38.8-1.05L38.8-1.05Q39.59-1.9 40.39-2.75L40.39-2.75Q43.05-5.7 44.05-6.95L44.05-6.95ZM68.49-16.65Q67.64-16.65 67.64-17.43 67.64-18.2 68.39-18.9 69.14-19.6 69.67-19.6 70.19-19.6 70.47-19.3 70.74-19 70.74-18.6 70.74-18.2 70.04-17.43 69.34-16.65 68.49-16.65ZM55.84-0.85L55.84-0.85Q56.39-2.1 60.27-6.55 64.14-11 66.14-13L66.14-13Q66.44-13.4 66.44-13.58 66.44-13.75 66.04-13.8L66.04-13.8 64.89-13.9Q64.49-13.9 64.14-13.5L64.14-13.5Q60.74-10.05 57.72-5.98 54.69-1.9 54.69-0.93 54.69 0.05 55.29 0.05L55.29 0.05Q56.09 0.05 58.54-1.28 60.99-2.6 63.04-3.95L63.04-3.95 65.09-5.3 65.04-5.95Q56.99-0.65 56.09-0.65L56.09-0.65Q55.84-0.65 55.84-0.85ZM77.79-4.6L79.84-5.95 79.89-5.3Q71.84 0.05 70.09 0.05L70.09 0.05Q69.79 0.05 69.79-0.3L69.79-0.3Q69.79-1.35 70.59-3.3L70.59-3.3 70.84-4Q70.84-4.1 70.67-4.1 70.49-4.1 67.74-2.1L67.74-2.1Q65.04-0.1 64.22-0.1 63.39-0.1 63.39-1.6L63.39-1.6Q63.39-5.75 68.12-9.7 72.84-13.65 79.49-13.65L79.49-13.65Q80.09-13.65 80.09-13.15 80.09-12.65 75.39-7.33 70.69-2 70.69-0.9L70.69-0.9Q70.69-0.7 70.99-0.7 71.29-0.7 73.54-2 75.79-3.3 77.79-4.6L77.79-4.6ZM71.89-5.9L71.89-5.9Q72.74-6.55 75.19-9.35 77.64-12.15 77.64-12.6L77.64-12.6Q77.64-12.8 77.24-12.8L77.24-12.8Q74.94-12.8 71.89-10.68 68.84-8.55 66.72-5.85 64.59-3.15 64.59-1.5L64.59-1.5Q64.59-1.2 64.89-1.2 65.19-1.2 65.87-1.58 66.54-1.95 67.52-2.63 68.49-3.3 69.19-3.8L69.19-3.8Q71.59-5.6 71.89-5.9ZM109.49-19.6L109.49-19.6 109.29-14.25Q109.79-13.6 110.89-13.6L110.89-13.6Q113.49-13.6 118.66-17.57 123.84-21.55 128.01-26.58 132.19-31.6 132.19-34.25L132.19-34.25Q132.19-36.3 129.44-36.3L129.44-36.3Q125.54-36.3 119.99-33.4 114.44-30.5 108.99-25.98 103.54-21.45 98.76-16.38 93.99-11.3 91.01-6.43 88.04-1.55 88.04 1.5L88.04 1.5Q88.04 1.9 88.39 1.9L88.39 1.9Q89.84 1.9 94.74-3.93 99.64-9.75 104.16-16.28 108.69-22.8 109.54-25L109.54-25Q109.69-25.35 109.84-25.35L109.84-25.35Q110.39-25.35 110.39-23.98 110.39-22.6 110.14-22.25L110.14-22.25Q109.59-20.75 107.94-18.2L107.94-18.2Q104.09-12.15 97.01-4.8 89.94 2.55 88.24 2.55L88.24 2.55Q87.44 2.55 87.44 1.5L87.44 1.5Q87.44-2.4 92.14-9.03 96.84-15.65 103.36-21.78 109.89-27.9 117.31-32.4 124.74-36.9 129.64-36.9L129.64-36.9Q133.84-36.9 133.84-33.9L133.84-33.9Q133.84-31.55 131.24-27.88 128.64-24.2 124.99-20.85 121.34-17.5 117.04-15.1 112.74-12.7 109.64-12.7L109.64-12.7Q109.39-12.7 109.24-12.75L109.24-12.75Q109.74 2.05 114.09 2.05L114.09 2.05Q115.59 2.05 117.91 1.13 120.24 0.2 121.84-0.75L121.84-0.75 123.44-1.7Q123.84-1.95 124.04-1.95 124.24-1.95 124.24-1.78 124.24-1.6 123.89-1.3L123.89-1.3Q123.19-0.85 122.09-0.15 120.99 0.55 118.24 1.73 115.49 2.9 113.71 2.9 111.94 2.9 110.74 1.78 109.54 0.65 108.94-1.3L108.94-1.3Q107.79-4.8 107.79-9.58 107.79-14.35 108.36-17.1 108.94-19.85 109.39-19.85L109.39-19.85Q109.49-19.85 109.49-19.6ZM130.28-10.8L130.28-10.8Q130.73-11.35 131.33-12.2 131.93-13.05 132.33-13.05 132.73-13.05 133.18-12.3L133.18-12.3Q133.18-11.4 128.66-6.4 124.13-1.4 124.13-0.95L124.13-0.95Q124.13-0.85 124.43-0.85 124.73-0.85 127.93-2.9L127.93-2.9Q134.63-7.2 139.48-12.35L139.48-12.35Q140.68-13.45 141.58-13.45L141.58-13.45Q141.63-13.45 141.68-13.45L141.68-13.45Q142.63-13.4 142.63-13.2L142.63-13.2 142.58-13.1Q140.43-11.1 136.18-6.35 131.93-1.6 131.93-0.75L131.93-0.75Q131.93-0.55 132.26-0.55 132.58-0.55 139.08-4.65L139.08-4.65 141.13-5.95 141.18-5.35Q140.58-4.95 139.63-4.35L139.63-4.35Q132.18 0.35 130.93 0.35L130.93 0.35Q130.48 0.35 130.48-0.15 130.48-0.65 131.71-3 132.93-5.35 133.48-6L133.48-6 132.68-5.55Q125.13-0.15 123.63-0.15L123.63-0.15Q123.03-0.15 123.03-0.83 123.03-1.5 123.58-2.58 124.13-3.65 124.61-4.3 125.08-4.95 126.03-6.08 126.98-7.2 127.03-7.25L127.03-7.25 123.13-4.95 122.98-5.5 124.68-6.55Q129.03-9.35 130.28-10.8ZM146.48-5.4L146.48-5.4Q146.48-5 146.53-4.85L146.53-4.85Q148.53-6.9 150.16-9.13 151.78-11.35 151.78-12L151.78-12Q151.78-12.15 151.63-12.15L151.63-12.15Q150.68-12.15 148.58-9.47 146.48-6.8 146.48-5.4ZM168.48-32.85L168.48-32.85Q167.18-32.85 159.21-25.03 151.23-17.2 145.53-10.15L145.53-10.15Q150.08-13.5 159.33-22.15 168.58-30.8 168.58-32.7L168.58-32.7Q168.58-32.8 168.48-32.85ZM169.43-33.75L169.43-33.75Q169.88-33.75 169.88-33.2L169.88-33.2Q169.88-30.85 160.43-22.1 150.98-13.35 144.53-8.9L144.53-8.9Q139.93-3.05 139.93-1.1L139.93-1.1Q139.93-0.75 140.28-0.75L140.28-0.75Q142.23-0.75 145.73-4.05L145.73-4.05Q145.58-4.45 145.58-5.05L145.58-5.05Q145.58-6.8 148.31-9.95 151.03-13.1 152.03-13.1L152.03-13.1Q152.53-13.1 152.53-12.35 152.53-11.6 150.83-9.18 149.13-6.75 146.83-4.4L146.83-4.4Q147.03-4.15 147.53-4.15L147.53-4.15Q148.83-4.15 151.63-6L151.63-6 151.88-5.5Q148.43-3.2 146.98-3.2L146.98-3.2Q146.33-3.2 145.98-3.55L145.98-3.55Q142.03 0.15 139.63 0.15L139.63 0.15Q139.03 0.15 139.03-0.8L139.03-0.8Q139.03-3.7 143.08-9.38 147.13-15.05 152.36-20.38 157.58-25.7 162.61-29.73 167.63-33.75 169.43-33.75ZM159.38-12.55L159.38-12.55Q159.73-13.05 160.13-13.05 160.53-13.05 160.98-12.3L160.98-12.3Q160.98-11.4 156.45-6.4 151.93-1.4 151.93-0.95L151.93-0.95Q151.93-0.85 152.23-0.85 152.53-0.85 155.73-2.9 158.93-4.95 160.63-6.3L160.63-6.3Q163.33-8.5 165.58-11.2L165.58-11.2 166.48-12.35Q167.68-13.45 168.58-13.45L168.58-13.45Q168.63-13.45 168.68-13.45L168.68-13.45Q169.63-13.4 169.63-13.2L169.63-13.2 169.58-13.1Q167.93-11.2 163.98-6.4 160.03-1.6 159.48-0.65L159.48-0.65Q159.88-0.65 162.18-1.95 164.48-3.25 166.58-4.6L166.58-4.6 168.63-5.9 168.68-5.3Q165.48-3.1 162.68-1.6L162.68-1.6 158.13 0.75Q154.18 6.1 148.25 12.23 142.33 18.35 141.28 18.35 140.23 18.35 140.23 17.65L140.23 17.65Q140.23 15.2 142.48 12.5L142.48 12.5Q145.08 9.45 147.2 7.7 149.33 5.95 150.38 5.1L150.38 5.1Q154.13 2.2 155.53 1.2L155.53 1.2Q157.58-1.3 158.58-2.4L158.58-2.4Q160.68-4.85 162.18-6.65L162.18-6.65 161.58-6.25Q160.88-5.8 160.48-5.55L160.48-5.55Q152.93-0.15 151.43-0.15L151.43-0.15Q150.83-0.15 150.83-0.83 150.83-1.5 151.43-2.63 152.03-3.75 152.58-4.5 153.13-5.25 154.13-6.43 155.13-7.6 155.18-7.65L155.18-7.65 150.93-4.95 150.78-5.5 152.68-6.8Q156.23-9.25 157.3-10.18 158.38-11.1 159.38-12.55ZM141.68 17.2L141.68 17.2Q141.98 17.2 145.05 13.7 148.13 10.2 151.08 6.7L151.08 6.7 153.98 3.15Q153.98 3.05 153.88 3.05L153.88 3.05Q141.53 12.05 141.53 16.9L141.53 16.9Q141.53 17.2 141.68 17.2Z" opacity="1" transform="matrix(1,0,0,1,0,0)" fill="#ffffff" class="wordmark-text-0" data-fill-palette-color="quaternary" id="text-0"></path></svg></g></svg></g></svg></g></svg></g><g></g></svg></g><defs></defs></svg><rect width="395.52" height="154.65516845269673" fill="none" stroke="none" visibility="hidden"></rect></g></svg></g></svg>